<mxfile host="app.diagrams.net" modified="2023-12-08T02:51:11.270Z" agent="Mozilla/5.0 (Windows NT 10.0; Win64; x64) AppleWebKit/537.36 (KHTML, like Gecko) Chrome/119.0.0.0 Safari/537.36" etag="vXRwMUYOHuAaOZutfr9-" version="22.1.7" type="github">
  <diagram id="aS9pjdUC0Do7hMSleVWt" name="第 1 页">
    <mxGraphModel dx="1687" dy="939" grid="0" gridSize="10" guides="1" tooltips="1" connect="1" arrows="1" fold="1" page="1" pageScale="1" pageWidth="1654" pageHeight="1169" background="none" math="0" shadow="0">
      <root>
        <mxCell id="0" />
        <mxCell id="1" parent="0" />
        <mxCell id="RPVrYkw0YZt2wrHHsJ2X-6" value="192.168.1.101" style="swimlane;whiteSpace=wrap;html=1;" vertex="1" parent="1">
          <mxGeometry x="189" y="273" width="262" height="542" as="geometry" />
        </mxCell>
        <mxCell id="RPVrYkw0YZt2wrHHsJ2X-10" value="&lt;font style=&quot;font-size: 18px;&quot;&gt;Auth&lt;/font&gt;&lt;br&gt;（登录认证服务）" style="rounded=1;whiteSpace=wrap;html=1;fillColor=#FFFF99;" vertex="1" parent="RPVrYkw0YZt2wrHHsJ2X-6">
          <mxGeometry x="69" y="246" width="120" height="60" as="geometry" />
        </mxCell>
        <mxCell id="RPVrYkw0YZt2wrHHsJ2X-11" value="&lt;span style=&quot;font-size: 18px;&quot;&gt;Exam&lt;/span&gt;&lt;br&gt;（考试服务）" style="rounded=1;whiteSpace=wrap;html=1;fillColor=#FF00FF;" vertex="1" parent="RPVrYkw0YZt2wrHHsJ2X-6">
          <mxGeometry x="69" y="343" width="120" height="60" as="geometry" />
        </mxCell>
        <mxCell id="RPVrYkw0YZt2wrHHsJ2X-12" value="&lt;span style=&quot;font-size: 18px;&quot;&gt;Kc&lt;/span&gt;&lt;br&gt;（课程服务）" style="rounded=1;whiteSpace=wrap;html=1;fillColor=#FF8000;" vertex="1" parent="RPVrYkw0YZt2wrHHsJ2X-6">
          <mxGeometry x="71" y="441" width="120" height="60" as="geometry" />
        </mxCell>
        <mxCell id="RPVrYkw0YZt2wrHHsJ2X-13" value="192.168.1.102" style="swimlane;whiteSpace=wrap;html=1;" vertex="1" parent="1">
          <mxGeometry x="499" y="273" width="250" height="542" as="geometry" />
        </mxCell>
        <mxCell id="RPVrYkw0YZt2wrHHsJ2X-16" value="&lt;font style=&quot;font-size: 18px;&quot;&gt;Auth&lt;/font&gt;&lt;br&gt;（登录认证服务）" style="rounded=1;whiteSpace=wrap;html=1;fillColor=#FFFF99;" vertex="1" parent="RPVrYkw0YZt2wrHHsJ2X-13">
          <mxGeometry x="69" y="246" width="120" height="60" as="geometry" />
        </mxCell>
        <mxCell id="RPVrYkw0YZt2wrHHsJ2X-17" value="&lt;span style=&quot;font-size: 18px;&quot;&gt;Exam&lt;/span&gt;&lt;br&gt;（考试服务）" style="rounded=1;whiteSpace=wrap;html=1;fillColor=#FF00FF;" vertex="1" parent="RPVrYkw0YZt2wrHHsJ2X-13">
          <mxGeometry x="69" y="343" width="120" height="60" as="geometry" />
        </mxCell>
        <mxCell id="RPVrYkw0YZt2wrHHsJ2X-18" value="&lt;span style=&quot;font-size: 18px;&quot;&gt;Tenant&lt;/span&gt;&lt;br&gt;（租户服务）" style="rounded=1;whiteSpace=wrap;html=1;fillColor=#00FFFF;" vertex="1" parent="RPVrYkw0YZt2wrHHsJ2X-13">
          <mxGeometry x="71" y="441" width="120" height="60" as="geometry" />
        </mxCell>
        <mxCell id="RPVrYkw0YZt2wrHHsJ2X-15" value="&lt;font style=&quot;font-size: 18px;&quot;&gt;Gateway&lt;/font&gt;&lt;br&gt;（网关）" style="rounded=1;whiteSpace=wrap;html=1;fillColor=#3399FF;" vertex="1" parent="RPVrYkw0YZt2wrHHsJ2X-13">
          <mxGeometry x="67" y="64" width="120" height="60" as="geometry" />
        </mxCell>
        <mxCell id="RPVrYkw0YZt2wrHHsJ2X-9" value="&lt;font style=&quot;font-size: 18px;&quot;&gt;Gateway&lt;/font&gt;&lt;br&gt;（网关）" style="rounded=1;whiteSpace=wrap;html=1;fillColor=#3399FF;" vertex="1" parent="RPVrYkw0YZt2wrHHsJ2X-13">
          <mxGeometry x="-239" y="70" width="120" height="60" as="geometry" />
        </mxCell>
        <mxCell id="RPVrYkw0YZt2wrHHsJ2X-8" value="&lt;font style=&quot;font-size: 18px;&quot;&gt;Nacos&lt;/font&gt;&lt;br&gt;（注册&amp;amp;配置中心）" style="rounded=1;whiteSpace=wrap;html=1;fillColor=#B3FF66;" vertex="1" parent="RPVrYkw0YZt2wrHHsJ2X-13">
          <mxGeometry x="-241" y="158" width="120" height="60" as="geometry" />
        </mxCell>
        <mxCell id="RPVrYkw0YZt2wrHHsJ2X-25" style="edgeStyle=orthogonalEdgeStyle;rounded=0;orthogonalLoop=1;jettySize=auto;html=1;exitX=0.5;exitY=1;exitDx=0;exitDy=0;entryX=0.5;entryY=0;entryDx=0;entryDy=0;strokeColor=#007FFF;strokeWidth=2;" edge="1" parent="RPVrYkw0YZt2wrHHsJ2X-13" source="RPVrYkw0YZt2wrHHsJ2X-9" target="RPVrYkw0YZt2wrHHsJ2X-8">
          <mxGeometry relative="1" as="geometry" />
        </mxCell>
        <mxCell id="RPVrYkw0YZt2wrHHsJ2X-14" value="&lt;font style=&quot;font-size: 18px;&quot;&gt;Nacos&lt;/font&gt;&lt;br&gt;（注册&amp;amp;配置中心）" style="rounded=1;whiteSpace=wrap;html=1;fillColor=#B3FF66;" vertex="1" parent="RPVrYkw0YZt2wrHHsJ2X-13">
          <mxGeometry x="69" y="158" width="120" height="60" as="geometry" />
        </mxCell>
        <mxCell id="RPVrYkw0YZt2wrHHsJ2X-32" style="edgeStyle=orthogonalEdgeStyle;rounded=0;orthogonalLoop=1;jettySize=auto;html=1;exitX=1;exitY=0.75;exitDx=0;exitDy=0;entryX=0;entryY=0.25;entryDx=0;entryDy=0;strokeColor=#007FFF;strokeWidth=2;" edge="1" parent="RPVrYkw0YZt2wrHHsJ2X-13" source="RPVrYkw0YZt2wrHHsJ2X-9" target="RPVrYkw0YZt2wrHHsJ2X-14">
          <mxGeometry relative="1" as="geometry">
            <Array as="points">
              <mxPoint x="-84" y="115" />
              <mxPoint x="-84" y="173" />
            </Array>
          </mxGeometry>
        </mxCell>
        <mxCell id="RPVrYkw0YZt2wrHHsJ2X-20" value="&lt;font style=&quot;font-size: 18px;&quot;&gt;Nacos&lt;/font&gt;&lt;br&gt;（注册&amp;amp;配置中心）" style="rounded=1;whiteSpace=wrap;html=1;fillColor=#B3FF66;" vertex="1" parent="RPVrYkw0YZt2wrHHsJ2X-13">
          <mxGeometry x="383" y="160" width="120" height="60" as="geometry" />
        </mxCell>
        <mxCell id="RPVrYkw0YZt2wrHHsJ2X-33" style="edgeStyle=orthogonalEdgeStyle;rounded=0;orthogonalLoop=1;jettySize=auto;html=1;exitX=1;exitY=0.5;exitDx=0;exitDy=0;entryX=0;entryY=0.25;entryDx=0;entryDy=0;strokeColor=#007FFF;strokeWidth=2;" edge="1" parent="RPVrYkw0YZt2wrHHsJ2X-13" source="RPVrYkw0YZt2wrHHsJ2X-9" target="RPVrYkw0YZt2wrHHsJ2X-20">
          <mxGeometry relative="1" as="geometry">
            <Array as="points">
              <mxPoint x="-62" y="100" />
              <mxPoint x="-62" y="134" />
              <mxPoint x="287" y="134" />
              <mxPoint x="287" y="175" />
            </Array>
          </mxGeometry>
        </mxCell>
        <mxCell id="RPVrYkw0YZt2wrHHsJ2X-19" value="192.168.1.103" style="swimlane;whiteSpace=wrap;html=1;" vertex="1" parent="1">
          <mxGeometry x="813" y="275" width="262" height="542" as="geometry" />
        </mxCell>
        <mxCell id="RPVrYkw0YZt2wrHHsJ2X-22" value="&lt;font style=&quot;font-size: 18px;&quot;&gt;Exam&lt;/font&gt;&lt;br style=&quot;border-color: var(--border-color);&quot;&gt;（考试服务）" style="rounded=1;whiteSpace=wrap;html=1;fillColor=#FF00FF;" vertex="1" parent="RPVrYkw0YZt2wrHHsJ2X-19">
          <mxGeometry x="69" y="246" width="120" height="60" as="geometry" />
        </mxCell>
        <mxCell id="RPVrYkw0YZt2wrHHsJ2X-23" value="&lt;span style=&quot;font-size: 18px;&quot;&gt;Kc&lt;/span&gt;&lt;br&gt;（课程服务）" style="rounded=1;whiteSpace=wrap;html=1;fillColor=#FF8000;" vertex="1" parent="RPVrYkw0YZt2wrHHsJ2X-19">
          <mxGeometry x="69" y="343" width="120" height="60" as="geometry" />
        </mxCell>
        <mxCell id="RPVrYkw0YZt2wrHHsJ2X-24" value="&lt;font style=&quot;font-size: 18px;&quot;&gt;Tenant&lt;/font&gt;&lt;br style=&quot;border-color: var(--border-color);&quot;&gt;（租户服务）" style="rounded=1;whiteSpace=wrap;html=1;fillColor=#00FFFF;" vertex="1" parent="RPVrYkw0YZt2wrHHsJ2X-19">
          <mxGeometry x="71" y="441" width="120" height="60" as="geometry" />
        </mxCell>
        <mxCell id="RPVrYkw0YZt2wrHHsJ2X-21" value="&lt;font style=&quot;font-size: 18px;&quot;&gt;Gateway&lt;/font&gt;&lt;br&gt;（网关）" style="rounded=1;whiteSpace=wrap;html=1;fillColor=#3399FF;" vertex="1" parent="RPVrYkw0YZt2wrHHsJ2X-19">
          <mxGeometry x="71" y="65" width="120" height="60" as="geometry" />
        </mxCell>
        <mxCell id="RPVrYkw0YZt2wrHHsJ2X-34" style="edgeStyle=orthogonalEdgeStyle;rounded=0;orthogonalLoop=1;jettySize=auto;html=1;exitX=0.75;exitY=0;exitDx=0;exitDy=0;entryX=0;entryY=0.5;entryDx=0;entryDy=0;strokeColor=#FFFF33;strokeWidth=2;" edge="1" parent="1" source="RPVrYkw0YZt2wrHHsJ2X-10" target="RPVrYkw0YZt2wrHHsJ2X-14">
          <mxGeometry relative="1" as="geometry">
            <Array as="points">
              <mxPoint x="348" y="501" />
              <mxPoint x="411" y="501" />
              <mxPoint x="411" y="461" />
            </Array>
          </mxGeometry>
        </mxCell>
        <mxCell id="RPVrYkw0YZt2wrHHsJ2X-36" style="edgeStyle=orthogonalEdgeStyle;rounded=0;orthogonalLoop=1;jettySize=auto;html=1;exitX=1;exitY=0.25;exitDx=0;exitDy=0;entryX=0;entryY=0.75;entryDx=0;entryDy=0;strokeWidth=2;strokeColor=#FF00FF;" edge="1" parent="1" source="RPVrYkw0YZt2wrHHsJ2X-11" target="RPVrYkw0YZt2wrHHsJ2X-14">
          <mxGeometry relative="1" as="geometry">
            <Array as="points">
              <mxPoint x="467" y="631" />
              <mxPoint x="467" y="476" />
            </Array>
          </mxGeometry>
        </mxCell>
        <mxCell id="RPVrYkw0YZt2wrHHsJ2X-37" style="edgeStyle=orthogonalEdgeStyle;rounded=0;orthogonalLoop=1;jettySize=auto;html=1;exitX=0;exitY=0.5;exitDx=0;exitDy=0;entryX=0;entryY=0.5;entryDx=0;entryDy=0;strokeWidth=2;strokeColor=#FF00FF;" edge="1" parent="1" source="RPVrYkw0YZt2wrHHsJ2X-11" target="RPVrYkw0YZt2wrHHsJ2X-8">
          <mxGeometry relative="1" as="geometry" />
        </mxCell>
        <mxCell id="RPVrYkw0YZt2wrHHsJ2X-39" style="edgeStyle=orthogonalEdgeStyle;rounded=0;orthogonalLoop=1;jettySize=auto;html=1;exitX=1;exitY=0.5;exitDx=0;exitDy=0;entryX=0;entryY=0.5;entryDx=0;entryDy=0;strokeColor=#FFFF33;strokeWidth=2;" edge="1" parent="1" source="RPVrYkw0YZt2wrHHsJ2X-10" target="RPVrYkw0YZt2wrHHsJ2X-20">
          <mxGeometry relative="1" as="geometry">
            <Array as="points">
              <mxPoint x="423" y="549" />
              <mxPoint x="423" y="502" />
              <mxPoint x="786" y="502" />
              <mxPoint x="786" y="463" />
            </Array>
          </mxGeometry>
        </mxCell>
        <mxCell id="RPVrYkw0YZt2wrHHsJ2X-42" style="edgeStyle=orthogonalEdgeStyle;rounded=0;orthogonalLoop=1;jettySize=auto;html=1;exitX=0.5;exitY=0;exitDx=0;exitDy=0;entryX=0.5;entryY=1;entryDx=0;entryDy=0;strokeColor=#FFFF33;strokeWidth=2;" edge="1" parent="1" source="RPVrYkw0YZt2wrHHsJ2X-10" target="RPVrYkw0YZt2wrHHsJ2X-8">
          <mxGeometry relative="1" as="geometry" />
        </mxCell>
        <mxCell id="RPVrYkw0YZt2wrHHsJ2X-44" style="edgeStyle=orthogonalEdgeStyle;rounded=0;orthogonalLoop=1;jettySize=auto;html=1;exitX=1;exitY=0.5;exitDx=0;exitDy=0;entryX=0;entryY=0.674;entryDx=0;entryDy=0;entryPerimeter=0;strokeWidth=2;strokeColor=#FF00FF;" edge="1" parent="1" source="RPVrYkw0YZt2wrHHsJ2X-11" target="RPVrYkw0YZt2wrHHsJ2X-20">
          <mxGeometry relative="1" as="geometry">
            <Array as="points">
              <mxPoint x="533" y="646" />
              <mxPoint x="533" y="598" />
              <mxPoint x="841" y="598" />
              <mxPoint x="841" y="473" />
            </Array>
          </mxGeometry>
        </mxCell>
        <mxCell id="RPVrYkw0YZt2wrHHsJ2X-45" value="192.168.1.99" style="swimlane;whiteSpace=wrap;html=1;" vertex="1" parent="1">
          <mxGeometry x="189" y="129" width="887" height="110" as="geometry" />
        </mxCell>
        <mxCell id="RPVrYkw0YZt2wrHHsJ2X-46" value="&lt;font style=&quot;font-size: 18px;&quot;&gt;Nginx&lt;/font&gt;" style="rounded=1;whiteSpace=wrap;html=1;fillColor=#FFFFFF;" vertex="1" parent="RPVrYkw0YZt2wrHHsJ2X-45">
          <mxGeometry x="377" y="36" width="120" height="60" as="geometry" />
        </mxCell>
        <mxCell id="RPVrYkw0YZt2wrHHsJ2X-47" value="" style="endArrow=classic;html=1;rounded=0;exitX=0.5;exitY=1;exitDx=0;exitDy=0;entryX=0.5;entryY=0;entryDx=0;entryDy=0;" edge="1" parent="1" source="RPVrYkw0YZt2wrHHsJ2X-46" target="RPVrYkw0YZt2wrHHsJ2X-15">
          <mxGeometry width="50" height="50" relative="1" as="geometry">
            <mxPoint x="696" y="270" as="sourcePoint" />
            <mxPoint x="746" y="220" as="targetPoint" />
          </mxGeometry>
        </mxCell>
        <mxCell id="RPVrYkw0YZt2wrHHsJ2X-48" value="" style="endArrow=classic;html=1;rounded=0;exitX=0.75;exitY=1;exitDx=0;exitDy=0;entryX=0.5;entryY=0;entryDx=0;entryDy=0;" edge="1" parent="1" source="RPVrYkw0YZt2wrHHsJ2X-46" target="RPVrYkw0YZt2wrHHsJ2X-21">
          <mxGeometry width="50" height="50" relative="1" as="geometry">
            <mxPoint x="706" y="280" as="sourcePoint" />
            <mxPoint x="756" y="230" as="targetPoint" />
          </mxGeometry>
        </mxCell>
        <mxCell id="RPVrYkw0YZt2wrHHsJ2X-49" value="" style="endArrow=classic;html=1;rounded=0;exitX=0.25;exitY=1;exitDx=0;exitDy=0;" edge="1" parent="1" source="RPVrYkw0YZt2wrHHsJ2X-46">
          <mxGeometry width="50" height="50" relative="1" as="geometry">
            <mxPoint x="716" y="290" as="sourcePoint" />
            <mxPoint x="319" y="341" as="targetPoint" />
          </mxGeometry>
        </mxCell>
      </root>
    </mxGraphModel>
  </diagram>
</mxfile>
